<svg width="200" height="122" viewBox="0 0 200 122" fill="none" xmlns="http://www.w3.org/2000/svg">
<path d="M34.4551 95.6758C26.3415 95.6758 19.4496 92.8407 13.7793 87.1704C8.10898 81.5001 5.27383 74.6082 5.27383 66.4946C5.27383 59.303 7.57883 52.9873 12.1888 47.5475C16.7988 42.1077 22.6535 38.8346 29.7529 37.7282C31.5969 28.7848 35.9303 21.478 42.7531 15.8077C49.5759 10.1374 57.459 7.30223 66.4024 7.30223C76.7288 7.30223 85.4416 11.0594 92.541 18.5737C99.6404 26.088 103.19 35.1005 103.19 45.6113V48.9305C109.829 48.7461 115.453 50.8897 120.063 55.3614C124.673 59.8331 126.978 65.4804 126.978 72.3032C126.978 78.6649 124.673 84.1508 120.063 88.7608C115.453 93.3708 109.967 95.6758 103.605 95.6758H34.4551ZM34.4551 87.3778H103.605C107.754 87.3778 111.304 85.9026 114.254 82.9522C117.205 80.0018 118.68 76.4521 118.68 72.3032C118.68 68.1542 117.205 64.6045 114.254 61.6541C111.304 58.7037 107.754 57.2285 103.605 57.2285H94.8921V45.6113C94.8921 37.2211 92.08 30.1217 86.4558 24.3131C80.8316 18.5045 73.9628 15.6002 65.8492 15.6002C57.7356 15.6002 50.8436 18.5045 45.1733 24.3131C39.503 30.1217 36.6679 37.2211 36.6679 45.6113H34.0402C28.3238 45.6113 23.4833 47.6166 19.5187 51.6273C15.5541 55.638 13.5718 60.5938 13.5718 66.4946C13.5718 72.3032 15.6002 77.2358 19.657 81.2926C23.7138 85.3494 28.6465 87.3778 34.4551 87.3778Z" fill="white" fill-opacity="0.1"/>
<path d="M148.068 24.8709C146.716 24.8709 145.567 24.3984 144.622 23.4533C143.677 22.5083 143.205 21.3596 143.205 20.0074C143.205 18.8088 143.589 17.7562 144.357 16.8495C145.126 15.9429 146.101 15.3974 147.285 15.213C147.592 13.7224 148.314 12.5046 149.451 11.5596C150.589 10.6145 151.902 10.142 153.393 10.142C155.114 10.142 156.566 10.7682 157.749 12.0206C158.933 13.2729 159.524 14.775 159.524 16.5268V17.08C160.631 17.0493 161.568 17.4066 162.336 18.1519C163.105 18.8971 163.489 19.8383 163.489 20.9755C163.489 22.0358 163.105 22.9501 162.336 23.7184C161.568 24.4868 160.654 24.8709 159.593 24.8709H148.068ZM148.068 23.4879H159.593C160.285 23.4879 160.877 23.2421 161.368 22.7503C161.86 22.2586 162.106 21.667 162.106 20.9755C162.106 20.284 161.86 19.6924 161.368 19.2006C160.877 18.7089 160.285 18.463 159.593 18.463H158.141V16.5268C158.141 15.1285 157.673 13.9452 156.735 12.9771C155.798 12.009 154.653 11.525 153.301 11.525C151.948 11.525 150.8 12.009 149.855 12.9771C148.91 13.9452 148.437 15.1285 148.437 16.5268H147.999C147.047 16.5268 146.24 16.8611 145.579 17.5295C144.918 18.198 144.588 19.0239 144.588 20.0074C144.588 20.9755 144.926 21.7976 145.602 22.4737C146.278 23.1499 147.1 23.4879 148.068 23.4879Z" fill="white" fill-opacity="0.1"/>
<path d="M153.739 80.698C149.682 80.698 146.236 79.2804 143.401 76.4452C140.566 73.6101 139.148 70.1641 139.148 66.1073C139.148 62.5115 140.301 59.3537 142.606 56.6338C144.911 53.9139 147.838 52.2773 151.388 51.7241C152.31 47.2524 154.476 43.599 157.888 40.7639C161.299 37.9287 165.241 36.5112 169.712 36.5112C174.876 36.5112 179.232 38.3897 182.782 42.1469C186.331 45.904 188.106 50.4103 188.106 55.6657V57.3253C191.425 57.2331 194.238 58.3049 196.543 60.5408C198.848 62.7766 200 65.6002 200 69.0116C200 72.1925 198.848 74.9355 196.543 77.2405C194.238 79.5455 191.495 80.698 188.314 80.698H153.739ZM153.739 76.549H188.314C190.388 76.549 192.163 75.8114 193.638 74.3362C195.113 72.861 195.851 71.0861 195.851 69.0116C195.851 66.9371 195.113 65.1623 193.638 63.6871C192.163 62.2119 190.388 61.4743 188.314 61.4743H183.957V55.6657C183.957 51.4706 182.551 47.9209 179.739 45.0166C176.927 42.1123 173.493 40.6602 169.436 40.6602C165.379 40.6602 161.933 42.1123 159.098 45.0166C156.263 47.9209 154.845 51.4706 154.845 55.6657H153.531C150.673 55.6657 148.253 56.6684 146.271 58.6737C144.288 60.6791 143.297 63.1569 143.297 66.1073C143.297 69.0116 144.311 71.478 146.34 73.5064C148.368 75.5348 150.834 76.549 153.739 76.549Z" fill="white" fill-opacity="0.1"/>
<path d="M4.86354 121.423C3.51128 121.423 2.36262 120.95 1.41757 120.005C0.472524 119.06 0 117.911 0 116.559C0 115.361 0.384166 114.308 1.1525 113.401C1.92083 112.495 2.89661 111.949 4.07985 111.765C4.38718 110.274 5.10941 109.056 6.24654 108.111C7.38367 107.166 8.69752 106.694 10.1881 106.694C11.9092 106.694 13.3613 107.32 14.5445 108.572C15.7278 109.825 16.3194 111.327 16.3194 113.079V113.632C17.4258 113.601 18.3631 113.958 19.1315 114.704C19.8998 115.449 20.284 116.39 20.284 117.527C20.284 118.588 19.8998 119.502 19.1315 120.27C18.3631 121.038 17.4488 121.423 16.3885 121.423H4.86354ZM4.86354 120.04H16.3885C17.08 120.04 17.6716 119.794 18.1634 119.302C18.6551 118.81 18.901 118.219 18.901 117.527C18.901 116.836 18.6551 116.244 18.1634 115.752C17.6716 115.261 17.08 115.015 16.3885 115.015H14.9364V113.079C14.9364 111.68 14.4677 110.497 13.5303 109.529C12.593 108.561 11.4482 108.077 10.0959 108.077C8.74362 108.077 7.59497 108.561 6.64992 109.529C5.70487 110.497 5.23234 111.68 5.23234 113.079H4.79439C3.84166 113.079 3.03491 113.413 2.37415 114.081C1.71338 114.75 1.383 115.576 1.383 116.559C1.383 117.527 1.72106 118.349 2.3972 119.025C3.07333 119.702 3.89545 120.04 4.86354 120.04Z" fill="white" fill-opacity="0.1"/>
<path d="M15.0055 14.7289C13.6533 14.7289 12.5046 14.2564 11.5596 13.3114C10.6145 12.3663 10.142 11.2177 10.142 9.86539C10.142 8.66679 10.5262 7.61417 11.2945 6.70754C12.0628 5.80091 13.0386 5.25539 14.2218 5.07099C14.5292 3.58043 15.2514 2.36262 16.3885 1.41757C17.5257 0.472524 18.8395 0 20.3301 0C22.0511 0 23.5033 0.626191 24.6865 1.87857C25.8698 3.13095 26.4614 4.63304 26.4614 6.38484V6.93804C27.5678 6.90731 28.5051 7.26458 29.2735 8.00987C30.0418 8.75515 30.426 9.69636 30.426 10.8335C30.426 11.8938 30.0418 12.8081 29.2735 13.5764C28.5051 14.3448 27.5908 14.7289 26.5305 14.7289H15.0055ZM15.0055 13.3459H26.5305C27.222 13.3459 27.8136 13.1001 28.3054 12.6083C28.7971 12.1166 29.043 11.525 29.043 10.8335C29.043 10.142 28.7971 9.55037 28.3054 9.05864C27.8136 8.56691 27.222 8.32104 26.5305 8.32104H25.0784V6.38484C25.0784 4.98648 24.6097 3.80325 23.6723 2.83515C22.735 1.86705 21.5901 1.383 20.2379 1.383C18.8856 1.383 17.737 1.86705 16.7919 2.83515C15.8469 3.80325 15.3743 4.98648 15.3743 6.38484H14.9364C13.9836 6.38484 13.1769 6.71907 12.5161 7.38752C11.8554 8.05597 11.525 8.88192 11.525 9.86539C11.525 10.8335 11.8631 11.6556 12.5392 12.3317C13.2153 13.0079 14.0374 13.3459 15.0055 13.3459Z" fill="white" fill-opacity="0.1"/>
</svg>
