<svg width="20" height="12" viewBox="0 0 20 12" fill="none" xmlns="http://www.w3.org/2000/svg">
<path d="M4.79546 12C3.46212 12 2.32955 11.615 1.39773 10.8451C0.465909 10.0751 0 9.13928 0 8.03756C0 7.06103 0.378788 6.20344 1.13636 5.46479C1.89394 4.72613 2.85606 4.28169 4.02273 4.13146C4.32576 2.91706 5.03788 1.92488 6.15909 1.15493C7.2803 0.384976 8.57576 0 10.0455 0C11.7424 0 13.1742 0.510172 14.3409 1.53052C15.5076 2.55086 16.0909 3.77465 16.0909 5.20188V5.65258C17.1818 5.62754 18.1061 5.91862 18.8636 6.52582C19.6212 7.13302 20 7.89984 20 8.82629C20 9.69014 19.6212 10.4351 18.8636 11.061C18.1061 11.687 17.2045 12 16.1591 12H4.79546ZM4.79546 10.8732H16.1591C16.8409 10.8732 17.4242 10.6729 17.9091 10.2723C18.3939 9.87168 18.6364 9.38967 18.6364 8.82629C18.6364 8.26291 18.3939 7.78091 17.9091 7.38028C17.4242 6.97966 16.8409 6.77934 16.1591 6.77934H14.7273V5.20188C14.7273 4.0626 14.2652 3.09859 13.3409 2.30986C12.4167 1.52113 11.2879 1.12676 9.95455 1.12676C8.62121 1.12676 7.48864 1.52113 6.55682 2.30986C5.625 3.09859 5.15909 4.0626 5.15909 5.20188H4.72727C3.78788 5.20188 2.99242 5.47418 2.34091 6.01878C1.68939 6.56338 1.36364 7.23631 1.36364 8.03756C1.36364 8.82629 1.69697 9.49609 2.36364 10.0469C3.0303 10.5978 3.84091 10.8732 4.79546 10.8732Z" fill="black"/>
<path d="M8.57749 3.59422H7.4486V7.29736C7.4486 7.46679 7.4231 7.60942 7.37211 7.72525C7.32111 7.84108 7.24638 7.92925 7.14791 7.98976C7.0512 8.04854 6.93251 8.07793 6.79184 8.07793C6.6582 8.07793 6.54214 8.05199 6.44367 8.00013C6.34696 7.94654 6.27047 7.87047 6.2142 7.77193C6.15969 7.67165 6.13068 7.5515 6.12716 7.41147H4.99036C4.9886 7.76415 5.06509 8.05718 5.21983 8.29057C5.37457 8.52223 5.58382 8.69512 5.84758 8.80922C6.11309 8.92159 6.40851 8.97778 6.73381 8.97778C7.09955 8.97778 7.42046 8.90949 7.69653 8.77291C7.9726 8.63634 8.188 8.44184 8.34274 8.18944C8.49924 7.93703 8.57749 7.63967 8.57749 7.29736V3.59422Z" fill="black"/>
<path d="M9.52175 6.28081V8.90517H10.6638V7.18326H11.6239C12.0389 7.18326 12.3923 7.10806 12.6842 6.95765C12.9779 6.80724 13.2021 6.59719 13.3568 6.32749C13.5115 6.0578 13.5889 5.74661 13.5889 5.39393C13.5889 5.04125 13.5124 4.73006 13.3594 4.46036C13.2082 4.18894 12.9884 3.97716 12.7 3.82502C12.4117 3.67116 12.0626 3.59422 11.6529 3.59422H9.52175V4.51223H11.434C11.6556 4.51223 11.8384 4.5494 11.9826 4.62374C12.1268 4.69635 12.2341 4.79921 12.3044 4.93233C12.3765 5.06372 12.4125 5.21759 12.4125 5.39393C12.4125 5.56854 12.3765 5.72327 12.3044 5.85812C12.2341 5.99124 12.1268 6.09583 11.9826 6.1719C11.8402 6.24624 11.6591 6.28341 11.4393 6.28341H10.6638V6.28081H9.52175Z" fill="black"/>
</svg>
